<svg width="300" height="51" viewBox="0 0 300 51" fill="none" xmlns="http://www.w3.org/2000/svg">
<path d="M0.00400019 13.188V5.7H21.636C32.772 5.7 38.532 10.308 38.532 17.348C38.532 21.828 36.228 25.284 32.644 27.204C37.572 28.804 40.772 32.644 40.772 38.276C40.772 46.02 34.628 50.5 22.916 50.5H0.00400019V43.012H22.276C27.78 43.012 30.788 41.22 30.788 37.252C30.788 33.284 27.78 31.492 22.276 31.492H0.00400019V24.196H20.484C25.668 24.196 28.548 22.34 28.548 18.692C28.548 15.044 25.668 13.188 20.484 13.188H0.00400019ZM55.023 30.34H72.495C71.855 25.86 68.463 22.916 63.727 22.916C59.055 22.916 55.727 25.86 55.023 30.34ZM64.943 50.948C53.231 50.948 45.551 43.588 45.551 33.284C45.551 23.044 53.295 15.684 63.727 15.684C73.839 15.684 81.455 22.468 81.455 33.476C81.455 34.18 81.391 35.268 81.327 36.036H55.087C56.047 40.516 59.823 43.332 65.263 43.332C68.911 43.332 71.663 42.18 74.031 39.876L79.087 45.444C75.951 49.028 71.151 50.948 64.943 50.948ZM116.017 43.14V50.5H85.6165V44.676L103.473 23.492H86.0645V16.132H115.441V21.956L97.6485 43.14H116.017ZM132.21 50.5H122.738V16.132H132.21V50.5ZM127.474 11.14C123.954 11.14 121.522 8.772 121.522 5.764C121.522 2.756 123.954 0.323997 127.474 0.323997C130.994 0.323997 133.426 2.564 133.426 5.572C133.426 8.772 131.058 11.14 127.474 11.14ZM148.648 30.34H166.12C165.48 25.86 162.088 22.916 157.352 22.916C152.68 22.916 149.352 25.86 148.648 30.34ZM158.568 50.948C146.856 50.948 139.176 43.588 139.176 33.284C139.176 23.044 146.92 15.684 157.352 15.684C167.464 15.684 175.08 22.468 175.08 33.476C175.08 34.18 175.016 35.268 174.952 36.036H148.712C149.672 40.516 153.448 43.332 158.888 43.332C162.536 43.332 165.288 42.18 167.656 39.876L172.712 45.444C169.576 49.028 164.776 50.948 158.568 50.948ZM191.522 34.18V50.5H182.05V16.132H191.074V20.804C193.506 17.412 197.602 15.684 203.042 15.684V24.516C202.21 24.388 201.57 24.324 200.866 24.324C195.234 24.324 191.522 27.524 191.522 34.18ZM229.817 16.772V24.132H221.113V38.66C221.113 41.732 222.713 43.396 225.465 43.396C227.001 43.396 228.473 42.948 229.625 42.116L232.185 48.836C230.137 50.244 227.193 50.948 224.185 50.948C216.185 50.948 211.577 46.916 211.577 38.852V24.132H206.201V16.772H211.577V8.516H221.113V16.772H229.817ZM253.114 50.948C242.298 50.948 234.426 43.652 234.426 33.284C234.426 22.98 242.298 15.684 253.114 15.684C263.994 15.684 271.866 22.98 271.866 33.284C271.866 43.652 263.994 50.948 253.114 50.948ZM253.114 43.14C258.362 43.14 262.266 39.364 262.266 33.284C262.266 27.204 258.362 23.492 253.114 23.492C247.994 23.492 244.026 27.204 244.026 33.284C244.026 39.364 247.994 43.14 253.114 43.14ZM288.335 34.18V50.5H278.863V16.132H287.887V20.804C290.319 17.412 294.415 15.684 299.855 15.684V24.516C299.023 24.388 298.383 24.324 297.679 24.324C292.047 24.324 288.335 27.524 288.335 34.18Z" fill="#292929"/>
</svg>
